<svg id="Layer_1" data-name="Layer 1" xmlns="http://www.w3.org/2000/svg" viewBox="0 0 1960.81 534.14"><defs><style>.cls-1{fill:#356376;}</style></defs><path class="cls-1" d="M1972.53,217.32c-2.42,4-1.34,8.65-1.66,12.82-.73,9.67-2.31,19.29-2.35,29,0,8.13-.09,8.13-8.21,8.13-11,0-22,.13-33-.07-3.72-.07-4.69,1.18-4.91,4.85-.87,14.43-1.89,28.85-3.83,43.18-.11.82.07,1.69-.07,2.49-.83,4.6,1.09,5.8,5.6,5.64,10.15-.35,20.32,0,30.48-.18,3.65-.08,5.63.54,5,4.75-1.5,9.4-1.74,18.93-2.74,28.39a163,163,0,0,0-1.34,18.27c0,7.48-.26,7.64-7.64,7.64-10.5,0-21,.12-31.49-.07-3.07-.06-3.76.8-3.92,3.86-.78,14.6-2.08,29.17-3.82,43.69-.47,3.9,0,7.86-1,11.79-1,4.09.33,6,5.28,5.85,13.15-.41,26.32,0,39.48-.22,4.07-.06,4.91,1.34,3.74,4.92-1.45,4.44-.84,9.13-1.38,13.69-1.6,13.38-2.41,26.87-3.1,40.34-.21,4-2.49,3.09-4.63,3.09q-42,0-84,0-13,0-26,0c-1.87,0-3.36.75-2.83-2.92,1.37-9.43,1.48-19,2.33-28.55,1.19-13.22,2.92-26.41,3.81-39.65.57-8.54,1.42-17,2.11-25.57,1.19-14.57,2.33-29.13,4-43.66,1-9,1.31-18.05,2.12-27.06,1.21-13.57,2.6-27.11,3.87-40.67.42-4.42.45-8.85.93-13.29,1.46-13.56,2-27.22,3.22-40.82,1.12-12.74,2.89-25.42,3.76-38.17.28-4.08,2.25-3.53,4.73-3.53h107.45Z" transform="translate(-11.72 -16.39)"/><path class="cls-1" d="M284.7,16.39c5,22,9.95,44,15,66,6.54,28.49,13.25,56.94,19.71,85.45,1.68,7.43,3.1,14.92,5.16,22.28,1,3.5-2.18,5.41-3.9,7.5-6.71,8.18-13.84,16-20.78,24-1.74,2-3.38,2.86-6.25,1.73-6-2.4-12.5-3.84-18.43-6.49s-11.13-1.81-16.76,0c-6.92,2.28-14,4.18-20.86,6.53-1.86.64-2.7.82-3.94-1q-9.21-13.58-18.8-26.9a5.68,5.68,0,0,1-.75-6.13q25.68-63.46,51.24-127c6.17-15.32,12.24-30.69,18.35-46Z" transform="translate(-11.72 -16.39)"/><path class="cls-1" d="M11.72,202.33c18,0,36-.65,53.94.13,40.24,1.75,80.48.3,120.72.89,6.38.09,12,1,15,8.24,2.3,5.69,6.06,10.79,9.14,16.17,1.36,2.36,1.65,3.67-1.91,4.76-10,3-9.51,3.32-10,14-.66,15.46-2,30.9-2.84,46.36-.12,2.32-1.57,2.74-3,3.23-12.53,4.44-25.11,8.76-37.66,13.17-1.74.61-2.91.8-4.72-.61-16.44-12.73-33-25.24-49.61-37.81q-28.12-21.36-56.27-42.69-16.39-12.45-32.82-24.88Z" transform="translate(-11.72 -16.39)"/><path class="cls-1" d="M1536.63,205.33c9.83,0,19.67.22,29.49-.11,4-.14,4.9,1.21,4.48,4.77q-1.62,13.44-3,26.9c-.41,4.25-.45,8.52-.91,12.8-1.43,13.57-1.88,27.25-3.24,40.84-1.52,15.21-2.71,30.45-4,45.68s-2.68,30.45-4,45.68c-1.34,15.38-2.84,30.75-4,46.15-.61,8-1.4,16.06-1.93,24.1-.17,2.58.75,4.89,1.32,7.19a5.26,5.26,0,0,0,5.16,3.93,8,8,0,0,0,7.78-4.21c2.68-4.66,3.16-10,3.67-15.07q2.41-24,4.28-48.13c1.2-15.06,2.61-30.12,4-45.19,1.36-15.39,2.67-30.79,4-46.18q2-22.83,4-45.66c1.32-15.06,2.94-30.1,3.91-45.2.12-1.94.88-3.86.9-5.79s.79-2.53,2.66-2.53q31.5.07,63,0c3.16,0,2.54,2.09,2.36,3.72-1.71,15.36-2.73,30.78-4.09,46.17-1.32,15.05-2.7,30.09-3.93,45.15-1.35,16.52-3.64,33-4.75,49.48-.62,9.37-1.57,18.7-2.26,28.06-1,13.43-2.79,26.79-3.8,40.22-.85,11.29-2.28,22.47-4.06,33.64-2.28,14.28-8.59,26.58-17.67,37.59-10.84,13.12-24.71,21.55-41.43,24.31-27.06,4.47-53,2-74.31-17.5-9.93-9.08-14.71-21.25-16.7-34.6-2.09-14.06-.14-27.93,1-41.88.42-5.09.42-10.19.92-15.3,1.72-17.69,2.54-35.47,4.26-53.16,1.07-11.13,1.94-22.26,3-33.38,1.43-15.39,2.7-30.79,4-46.18s2.75-30.77,4.09-46.16c.51-5.84.71-11.77,1.65-17.62.47-2.89,1.93-2.52,3.7-2.52Q1521.38,205.32,1536.63,205.33Z" transform="translate(-11.72 -16.39)"/><path class="cls-1" d="M1786.2,350.7a47,47,0,0,1,13.55,5.69c10.83,6.75,16,17,16.76,29.52.93,15.07-.94,30.07-2.13,45s-2.78,30.09-3.89,45.16c-.74,10.14-2,20.24-2.87,30.38-.18,2.22-.85,2.77-2.94,2.76q-28.48-.09-57,0c-2.26,0-3.41-.47-3.17-3,.94-9.81,1.63-19.65,2.74-29.44.52-4.57.54-9.16,1.07-13.75,1.57-13.55,1.74-27.27,3.35-40.81a303.75,303.75,0,0,0,1.86-38.6c-.06-7-8.9-13.39-15.59-11.41-1.7.5-1.32,1.61-1.4,2.68-1,13.62-1.73,27.28-3.09,40.87-1.52,15.2-2.68,30.43-4,45.64s-3,30.08-3.82,45.18c-.13,2.4-1.17,2.62-3.08,2.62q-31-.06-62,0c-2.46,0-3.15-.82-3-3.16.49-10.84,1.56-21.62,2.83-32.39.52-4.4.53-8.83,1-13.26,1.49-13.58,1.9-27.26,3.26-40.86,1.52-15.19,2.69-30.42,4-45.63q2-22.58,4-45.17,2-23.32,4.07-46.66c.94-10.95,2-21.9,2.88-32.86,1.18-13.9,2.69-27.78,3.9-41.68.19-2.2,1.23-2.29,2.87-2.29,22.32,0,44.66-.54,67,.25,11.94.42,24,.76,35.87,2.76,18.51,3.11,29.52,13.09,35.13,32.57,4.22,14.63,3.83,29.83,2.41,45.06-1.15,12.39-2.73,24.59-5.8,36.67C1816,342,1804.13,347.73,1786.2,350.7Zm-22-70.38c1.17-18.85-6.91-22.13-14.73-22.08-2.51,0-2.88,1-3,3.19-.88,13.43-1.56,26.89-3.16,40.24-.55,4.56-.51,9.14-1.2,13.7-1.52,9.87-1.38,9.71,7.71,8.1,6.5-1.14,9.35-5.24,10.55-10.59C1763.14,300.55,1763.47,287.89,1764.24,280.32Z" transform="translate(-11.72 -16.39)"/><path class="cls-1" d="M555.83,509.21c4.67-23.62,9.2-46.88,13.86-70.11,4.51-22.45,9.22-44.86,13.73-67.31,3.83-19.12,7.44-38.29,11.27-57.41,4.17-20.86,8.49-41.69,12.74-62.54,1.07-5.24,2.15-10.49,3.19-15.74.47-2.37-1.06-3.58-2.76-4.77-14.34-10-30.36-16.24-47-20.94-1.54-.44-3.28-.56-2.93-2.45.27-1.45,1.2-3.13,3.42-2.63a9.53,9.53,0,0,0,2,0c48.65,0,97.3.06,146-.11,4.47,0,5.72,1.15,5.48,5.55-.8,14.43.76,28.84,1.13,43.26.45,17,1.29,34,1.94,51.08s1.36,34.05,2,51.08,1.32,34.05,2,51.07c.69,17.19,1.32,34.38,2,51.57.62,15.37,1.45,30.72,1.91,46.1.11,3.55-.92,4.4-4.41,4.37q-30.23-.26-60.47,0c-3.69,0-4.2-1.22-4.28-4.52-.39-15.46,1.65-30.84,1.2-46.3-.1-3.55-1-4.54-4.47-4.33a90.9,90.9,0,0,1-14.48,0c-4-.4-4.7,2-5.12,4.77q-3.59,24-7,48c-.23,1.65-.64,2.33-2.35,2.32C601.55,509.2,578.75,509.21,555.83,509.21Zm83.24-108.95c5.74,0,11.4-.26,17,.09,3.75.22,4.68-.9,4.65-4.64-.17-27.44-.09-54.89-.09-82.33a21.55,21.55,0,0,1,.12-4.48c1.92-9,.31-18,.6-27C653.17,321.1,645.28,360.38,639.07,400.26Z" transform="translate(-11.72 -16.39)"/><path class="cls-1" d="M1432.27,338.28c-10,0-20,0-30,0-2.84,0-3.62,0-3.07-3.75,1.17-7.77,1.76-15.7,2.19-23.55.88-15.81,3.48-31.49,3.22-47.37-.13-7.76-2.65-11.59-8.44-12.31-5.31-.66-9.5,2.88-11.83,9.61-2.43,7-2.88,14.37-3.65,21.61-1.54,14.37-2.34,28.8-4,43.17-1.07,9.32-1.29,18.73-2.13,28.08-1.19,13.23-3,26.42-3.78,39.67-.54,9.21-1.31,18.41-2.33,27.55-.79,7-.43,14.14-1.68,21.17a34.12,34.12,0,0,0,1.13,15.68,7.22,7.22,0,0,0,6.48,5.31c4.11.4,7.85-.5,10.42-4.14,3.64-5.16,4-11.36,4.66-17.22,2-17.3,3.52-34.66,5-52,.22-2.46.67-3.55,3.38-3.54q30.75.14,61.49,0c4.81,0,3.29,3.46,3.07,5.63-1.12,11.24-2.55,22.45-3.87,33.67-1.39,11.82-3.07,23.63-6.77,35-9.42,28.86-29.9,46-58.91,52.52-21.07,4.74-42,3.57-61.75-6.66-16.44-8.52-25.56-21.93-28.71-40.18-2.57-14.86-2.13-29.74-1.66-44.58.54-16.92,2.25-33.82,3.92-50.67,1.08-11,1.82-22,3-32.88,1.73-16,2.64-32,4.72-48,1.67-12.78,2.52-25.71,7.18-37.85,10.58-27.58,30.24-44.87,59.34-50.9,19.94-4.14,39.52-2.87,58.11,5.93,17.37,8.22,28.07,22.09,32.3,40.8.86,3.81.76,7.83,1.23,11.74,1.47,12.05.27,24.1-.11,36.12-.41,13-2.64,25.86-3,38.88-.06,2.39-1.44,3.58-4.23,3.53C1452.93,338.17,1442.6,338.28,1432.27,338.28Z" transform="translate(-11.72 -16.39)"/><path class="cls-1" d="M1025.26,400.26c9,0,18,.25,27-.12,4.09-.16,4.82,1.4,4.34,4.84-2,14.82-2.95,29.75-4,44.66-.2,2.9.71,5.55,1.4,8.18a7.12,7.12,0,0,0,6.37,5.38,11.74,11.74,0,0,0,11-4.32,24.48,24.48,0,0,0,5-12c1.71-11.95,2.31-24,.32-36a15.93,15.93,0,0,0-4.37-8.53c-9.91-10.22-20.56-19.6-31.43-28.81-10.29-8.73-21.26-17-28.83-28.53-6.49-9.86-8.94-21-10.52-32.67-1.32-9.65-.6-19.16.33-28.61,1.87-19.13,3.68-38.5,15-55,10.35-15.08,25.37-23.6,42.86-27.21,18.58-3.84,37.28-3.52,55.42,2.85,13.34,4.7,24.73,12.12,31.26,25.33a37.91,37.91,0,0,1,3.3,11.64c2.21,15.86.69,31.72-.05,47.57-.12,2.44-1.36,4.74-1,7.28.27,1.93-1,2.1-2.49,2.1-19.32,0-38.65-.05-58,0-2.53,0-2.51-1.32-2.54-3.14a103.38,103.38,0,0,1,1.28-14.76c.91-6.81.4-13.55.74-20.31.16-3.36-.76-6.26-4.08-7.75-3.79-1.71-7.21-1-10.31,1.82-3.89,3.51-5.28,8.3-6.16,13.06-1.7,9.26-2.74,18.65,0,27.91,2.57,8.73,9.57,14,16.39,19,14.58,10.84,28.66,22.27,41.09,35.56,11.34,12.13,17.31,26.47,18.3,43.24.46,7.77,1.16,15.56.67,23.28-1.15,18.42-2.42,36.91-8.21,54.63-6,18.51-19.79,29.6-36.85,37.28-15.4,6.94-31.79,8.12-48.25,6.89-17.45-1.29-33.2-7.43-45.53-20.41-8.16-8.58-11.8-19.12-13.16-30.85a183,183,0,0,1-.67-30.77,283.41,283.41,0,0,1,2.6-29.89c.48-3,1.78-2.91,3.85-2.9Q1011.27,400.28,1025.26,400.26Z" transform="translate(-11.72 -16.39)"/><path class="cls-1" d="M1216.18,509.22c-18.16,0-36.33-.08-54.49.07-3.2,0-4.5-.75-4.11-4.1q1.61-13.92,2.94-27.87c.4-4.25.56-8.53.92-12.79,1.28-15.06,2.46-30.13,4.09-45.16,1-9.66,1.25-19.4,2.12-29.07,1.17-13.08,2.7-26.12,3.89-39.19.85-9.34,1.26-18.72,2.1-28.07,1.2-13.39,2.68-26.76,3.9-40.15.4-4.43.49-8.88.92-13.33,1.69-17.34,2.81-34.75,4.19-52.13.11-1.45.79-2.85.92-4.3.74-7.8.71-7.8,8.84-7.8,33.32,0,66.65.09,100-.12,4.33,0,5,2,4,5-1.58,5-1,10.1-1.64,15.12-1.6,13-2.3,26.22-3.14,39.36-.21,3.32-2.3,2.62-4.15,2.63-12.33,0-24.66.09-37,0-2.86,0-3.73.52-4.07,3.71-1.21,11.28-1.67,22.63-3.1,33.85-.67,5.19.18,10.51-1.61,15.64-1.09,3.11,1.56,2.84,3.56,2.84,11.33,0,22.66,0,34,0,2.94,0,5-.4,3.58,4.16-1.27,3.94-.66,8.46-1.12,12.74-1.42,13.08-2.26,26.23-3.07,39.36-.17,2.8-1.48,2.76-3.46,2.75-11.5,0-23,0-34.49,0-2.52,0-3.89,0-4.34,3.46-.85,6.53-1.1,13.08-1.75,19.6-1.32,13.07-2.22,26.19-3.77,39.23-.47,4,2,2.65,3.5,2.66,13.66.1,27.33.2,41,0,3.61-.06,4.64,1.05,4.27,4.47-1.08,9.94-2.24,19.88-2.92,29.86-.54,8-1.23,16.06-2,24.09-.3,3.24-1.25,3.72-4.09,3.7C1252.51,509.16,1234.34,509.22,1216.18,509.22Z" transform="translate(-11.72 -16.39)"/><path class="cls-1" d="M792.13,509.22c-16.66,0-33.32,0-50,0-2.85,0-4.41.48-3.74-3.95,1.44-9.57,1.41-19.36,2.28-29,1.16-12.91,3.07-25.76,3.78-38.69.52-9.54,1.62-19,2.28-28.54.93-13.42,2.62-26.78,3.84-40.18.82-9,1.28-18.06,2.08-27.07,1.22-13.74,2.84-27.44,3.79-41.18.59-8.54,1.44-17,2.16-25.56,1.23-14.39,2.33-28.79,3.86-43.15.84-7.83,1-15.74,2-23.58.32-2.36.85-3,3.19-3,20.66.08,41.32.12,62,0,3.22,0,3.14,1.64,2.93,3.72-1.63,16.48-3.42,33-4.93,49.46-.89,9.83-1.21,19.71-2.09,29.55-1.15,12.9-2.89,25.76-3.82,38.67-.62,8.54-1.34,17.05-2.11,25.57-1.29,14.39-2.23,28.81-3.92,43.17-1.07,9.15-1.36,18.38-2.13,27.56-.55,6.53-1.25,13.05-2,19.56-.39,3.43.32,5,4.41,4.85,10.48-.35,21,0,31.48-.19,3.12-.05,4.54.6,4.17,4-1.42,13.05-2.93,26.09-3.86,39.18-.34,4.92-1.2,9.83-1.09,14.76.07,3.26-.84,4.18-4.13,4.15C825.78,509.13,809,509.22,792.13,509.22Z" transform="translate(-11.72 -16.39)"/><path class="cls-1" d="M917.63,509.22c-16.66,0-33.32-.1-50,.08-3.78,0-4.84-1.27-3.7-4.59,1.59-4.61.88-9.45,1.46-14.16,1.65-13.55,2-27.25,3.31-40.84,1.53-15.37,2.69-30.76,4-46.14q2-22.33,4-44.66c1.36-15.55,2.75-31.1,4-46.65.93-11.13,2-22.25,3-33.37,1.4-15.55,2.87-31.09,4-46.66.55-7.36,1.91-14.67,1.87-22.09,0-3.36,1.16-4.93,5-4.89,19.83.17,39.65.12,59.48,0,3.26,0,4.51-.22,3.89,4.36-1.12,8.27-1.56,16.69-2.3,25-1.25,14.39-2.57,28.77-3.8,43.16-.82,9.5-1.67,19-2.33,28.55-.93,13.42-2.77,26.77-3.78,40.19q-.93,12.54-2.07,25.07c-1.29,14.39-2.59,28.79-3.81,43.19-.8,9.49-2,19-2.3,28.53-.1,3,.67,4,3.83,3.93,10.83-.21,21.66,0,32.49-.15,3.12-.05,4.56.89,3.59,3.89-1.61,4.94-1.09,10.1-1.67,15.12-1.54,13.4-2.29,26.9-3.11,40.37-.2,3.35-2.23,2.65-4.09,2.65Q943.13,509.25,917.63,509.22Z" transform="translate(-11.72 -16.39)"/><path class="cls-1" d="M523.71,203.51q-18.32,12.38-36.62,24.74Q428,268,368.89,307.65c-2.9,2-5.24,2.42-8.71,1-11.23-4.68-22.65-8.93-34.1-13.08-2.1-.76-2-.94-1.63-3.14a351.42,351.42,0,0,0,4.31-37.07,90.17,90.17,0,0,1,2.51-15.93c.79-3-.06-4.28-2.61-5-10.59-3.14-10.56-3.1-3.92-11.62,4.13-5.3,7.94-10.86,12.22-16,3.63-4.39,9.27-3.09,13.85-3.2,20.14-.45,40.3-.19,60.45-.19,16,0,32,.71,47.95-.18,19.79-1.12,39.54-.48,59.31-.82,1.6,0,3.21,0,4.82,0C523.47,202.72,523.59,203.12,523.71,203.51Z" transform="translate(-11.72 -16.39)"/><path class="cls-1" d="M398.55,501.43,364,474.05q-17.55-13.89-35.11-27.79C315.27,435.49,301.59,424.79,288,414c-8.49-6.71-16.79-13.67-25.43-20.17a4.08,4.08,0,0,1-1.79-4.51c1.23-8.08,2.45-16.16,3-24.32.16-2.49,2.18-3.76,3.88-4.85a233.58,233.58,0,0,0,30.18-23.61,83,83,0,0,0,15.71-19c1.34-2.24,2.68-2.64,4.79-2,12.15,3.56,24.26,7.22,36.44,10.64,1.79.51,1.72,1.43,2.05,2.75,4.93,20,10,40,14.91,60.05,8.8,35.61,17.51,71.25,26.4,106.83A19.7,19.7,0,0,1,398.55,501.43Z" transform="translate(-11.72 -16.39)"/><path class="cls-1" d="M96.92,471.8c6.12-14.54,12.16-28.91,18.22-43.27q7.65-18.15,15.33-36.3a23.07,23.07,0,0,0,2.24-8.64c0-2.07-.38-4.29,2.84-4.85.91-.15,1.56-2.36,2.13-3.71,6-14.08,12-28.15,17.82-42.29A7.32,7.32,0,0,1,161,327.8c11.91-3.06,23.75-6.44,35.61-9.7,1.53-.42,3-1.51,4.09.94,6.93,15.72,18.79,27.51,32.05,37.65,7.35,5.64,11.25,11.2,9.15,20.62-1,4.48-.56,9.29-.7,13.95-.07,2.25-1,3.13-3.35,3.13-4,0-8.94-1.68-11.65.66s-1.44,7.53-1.71,11.48c-.18,2.7-1.19,4-4,3.62a33.35,33.35,0,0,0-4,0c-8.32,0-8.35,0-8.8,8.61-.43,8.25-.35,6.68-6.92,6.75-7.17.08-14.34.09-21.5,0-2.52,0-3.8.77-3.59,3.39a4.1,4.1,0,0,1,0,.5c-1.07,12.38-1.07,12.31-13.22,11.91-2.52-.08-3.9-.52-3.07-3.36a5.36,5.36,0,0,0,.12-1c.91-11.09.91-10.92-10.13-11.08-3.69-.05-4.74,1-5,4.66-.68,10.65-.88,10.81-11.75,10.6-3.87-.08-5,1-5.2,4.9-.49,10.69-.7,10.86-11.73,10.69-3.92-.06-5,1.14-5.22,5-.49,11-.68,11-11.81,10.53A13.2,13.2,0,0,1,96.92,471.8Zm88-61.55c8.28,0,8.28,0,8.75-8.55a29.13,29.13,0,0,1,.29-4c.53-2.61-.71-3.25-3-3.11-1.49.1-3,0-4.49,0-7.85,0-7.85,0-8.54,7.86S177.25,410.25,184.93,410.25Z" transform="translate(-11.72 -16.39)"/><path class="cls-1" d="M157.71,472.45a13.34,13.34,0,0,0-2,0c-4.81.77-6.43-.73-5.4-5.89,1.25-6.23.84-6.32-5.81-6.32-9.44,0-9.1,0-8.56-9.2.32-5.35,2.15-6.9,7.47-6.57,8.5.52,8.73.15,8.13,8.5-.26,3.51.9,4.2,4.07,4.18,3.59,0,8.23-1.68,10.5.83,2.06,2.29-.21,6.64-.36,10.11C165.54,473.34,166,472.35,157.71,472.45Z" transform="translate(-11.72 -16.39)"/><path class="cls-1" d="M96.1,483.22c7.37,0,7.37,0,6.75,7.19-.74,8.48-.74,8.48-9.28,8.47-7.26,0-7.26,0-6.4-7.33,0-.17,0-.33.07-.5C88.19,483.22,88.19,483.22,96.1,483.22Z" transform="translate(-11.72 -16.39)"/><path class="cls-1" d="M108.83,511.3c7.86,0,7.86,0,7.07,7.76-.81,8-.81,8-9.11,8-1.32,0-2.66-.11-4,0-2.4.22-3.36-.73-3-3.14.28-1.63.41-3.28.6-4.93C101.32,511.3,101.32,511.3,108.83,511.3Z" transform="translate(-11.72 -16.39)"/><path class="cls-1" d="M127.07,485.34c-8,0-8,0-7.45-7.32a27,27,0,0,0,.16-3.47c-.24-3.51,1-4.88,4.83-4.84,11.25.11,10.78-.08,10.39,11C134.75,488.07,129.74,484.4,127.07,485.34Z" transform="translate(-11.72 -16.39)"/><path class="cls-1" d="M66.61,550.54c-7.27,0-7.27,0-6.78-7.17.56-8.24.56-8.24,8.55-8.24,1.49,0,3,.1,4.48,0,2.33-.19,3.42.61,3,3.09-.21,1.3-.15,2.65-.23,4C75.13,550.54,75.13,550.54,66.61,550.54Z" transform="translate(-11.72 -16.39)"/></svg>