<?xml version="1.0" encoding="UTF-8"?>
<svg width="182px" height="36px" viewBox="0 0 182 36" version="1.1" xmlns="http://www.w3.org/2000/svg" xmlns:xlink="http://www.w3.org/1999/xlink">
    <!-- Generator: Sketch 53.2 (72643) - https://sketchapp.com -->
    <title>logo</title>
    <desc>Created with Sketch.</desc>
    <g id="Page-1" stroke="none" stroke-width="1" fill="none" fill-rule="evenodd">
        <g id="hipotekarna-banka" transform="translate(-14.000000, -85.000000)" fill="#346275" fill-rule="nonzero">
            <path d="M191.077,88.175 L195.472,100.912 L190.618,100.912 L190.215,99.307 L186.805,99.307 L186.415,100.912 L181.577,100.912 L186.049,88.175 L191.077,88.175 Z M187.568,96.281 L189.442,96.281 C189.386,96.089 189.329,95.892 189.277,95.691 C189.224,95.488 189.167,95.295 189.109,95.104 C188.98,94.605 188.867,94.104 188.765,93.598 C188.663,93.094 188.592,92.58 188.547,92.059 L188.457,92.04 C188.411,92.573 188.336,93.094 188.236,93.598 C188.136,94.104 188.024,94.605 187.892,95.104 C187.833,95.295 187.781,95.488 187.726,95.691 C187.677,95.886 187.621,96.083 187.568,96.281 Z M61.027,110.07 C61.754,110.186 62.324,110.524 62.741,111.081 C63.157,111.641 63.368,112.347 63.368,113.197 C63.368,113.712 63.279,114.2 63.104,114.666 C62.927,115.129 62.678,115.522 62.354,115.846 C62.014,116.197 61.592,116.45 61.088,116.591 C60.581,116.739 59.735,116.811 58.542,116.811 L55.388,116.811 L55.388,104.096 L58.524,104.096 C59.422,104.096 60.083,104.144 60.511,104.244 C60.942,104.34 61.304,104.503 61.606,104.729 C61.99,105.019 62.29,105.397 62.503,105.868 C62.718,106.336 62.823,106.853 62.823,107.421 C62.823,108.1 62.67,108.665 62.364,109.119 C62.054,109.576 61.61,109.89 61.027,110.07 Z M57.37,105.814 L57.37,109.464 L58.145,109.464 C59.11,109.464 59.789,109.327 60.188,109.057 C60.589,108.788 60.79,108.336 60.79,107.698 C60.79,107.004 60.607,106.516 60.235,106.235 C59.868,105.953 59.171,105.814 58.145,105.814 L57.37,105.814 Z M61.069,114.015 C61.208,113.729 61.273,113.418 61.274,113.078 C61.274,112.669 61.193,112.318 61.028,112.018 C60.864,111.716 60.626,111.48 60.322,111.312 C60.128,111.215 59.91,111.141 59.663,111.096 C59.415,111.052 59.088,111.026 58.68,111.026 L57.37,111.026 L57.37,115.081 L58.068,115.081 C58.775,115.081 59.305,115.054 59.655,114.995 C60.009,114.94 60.285,114.836 60.493,114.691 C60.74,114.523 60.93,114.298 61.069,114.015 Z M69.534,104.096 L69.993,104.096 L75.788,116.811 L73.652,116.811 L72.24,113.537 L67.306,113.537 L65.859,116.811 L63.733,116.811 L69.534,104.096 Z M70.25,108.916 C70.174,108.731 70.101,108.517 70.018,108.278 C69.939,108.038 69.86,107.77 69.781,107.473 C69.713,107.751 69.642,108.009 69.563,108.252 C69.486,108.492 69.409,108.713 69.33,108.916 L68.055,111.815 L71.526,111.815 L70.25,108.916 Z M68.023,100.91 L63.502,100.91 L63.502,96.422 L59.908,96.422 L59.908,100.91 L55.388,100.91 L55.388,88.175 L59.908,88.175 L59.908,92.414 L63.502,92.414 L63.502,88.175 L68.023,88.175 L68.023,100.91 Z M74.642,88.175 L74.642,100.911 L70.045,100.911 L70.045,88.175 L74.642,88.175 Z M138.187,88.175 L134.39,94.446 L138.718,100.912 L133.248,100.912 L130.203,95.583 L130.203,100.912 L125.768,100.912 L125.768,88.175 L130.203,88.175 L130.203,93.608 L133.071,88.175 L138.187,88.175 Z M102.045,92.344 L102.045,88.175 L113.261,88.175 L113.261,92.344 L109.911,92.344 L109.911,100.912 L105.391,100.912 L105.391,92.344 L102.045,92.344 Z M106.444,104.096 L106.902,104.096 L112.695,116.811 L110.562,116.811 L109.151,113.537 L104.214,113.537 L102.768,116.811 L100.642,116.811 L106.444,104.096 Z M107.157,108.916 C107.084,108.731 107.01,108.517 106.927,108.278 C106.847,108.038 106.768,107.77 106.687,107.473 C106.62,107.751 106.548,108.009 106.473,108.252 C106.397,108.492 106.317,108.713 106.236,108.916 L104.963,111.815 L108.434,111.815 L107.157,108.916 Z M101.072,96.203 C100.944,96.729 100.751,97.231 100.493,97.707 L100.493,97.692 C99.909,98.757 99.098,99.561 98.053,100.102 C97.011,100.641 95.924,100.912 94.793,100.912 L94.523,100.912 C93.885,100.875 93.255,100.76 92.64,100.562 C92.022,100.361 91.447,100.064 90.91,99.666 C90.089,99.066 89.471,98.301 89.052,97.374 C88.632,96.453 88.42,95.496 88.42,94.507 C88.42,93.826 88.525,93.155 88.73,92.492 C88.938,91.825 89.25,91.214 89.664,90.662 C90.294,89.831 91.07,89.21 91.991,88.797 C92.916,88.381 93.871,88.175 94.859,88.175 L95.044,88.175 C95.852,88.199 96.64,88.363 97.408,88.669 C98.173,88.976 98.855,89.424 99.449,90.012 C100.057,90.604 100.509,91.306 100.813,92.115 C101.115,92.926 101.265,93.759 101.265,94.611 C101.265,95.144 101.201,95.674 101.072,96.203 Z M96.879,94.56 L96.879,94.408 C96.865,94.133 96.813,93.867 96.717,93.607 C96.623,93.344 96.498,93.119 96.339,92.925 C96.148,92.699 95.924,92.528 95.668,92.414 C95.408,92.302 95.141,92.25 94.859,92.263 C94.523,92.263 94.2,92.337 93.893,92.492 C93.584,92.644 93.336,92.872 93.146,93.179 C93.03,93.375 92.945,93.586 92.884,93.82 C92.823,94.049 92.792,94.292 92.792,94.542 C92.792,94.896 92.857,95.233 92.984,95.554 C93.114,95.878 93.301,96.157 93.549,96.382 C93.738,96.541 93.94,96.661 94.153,96.739 C94.365,96.82 94.583,96.858 94.81,96.858 C95.19,96.858 95.551,96.748 95.893,96.536 C96.236,96.319 96.491,96.022 96.66,95.65 L96.66,95.63 C96.735,95.485 96.793,95.318 96.826,95.13 C96.861,94.944 96.879,94.749 96.879,94.56 Z M115.282,100.912 L115.282,88.175 L123.745,88.175 L123.745,91.629 L119.716,91.629 L119.716,92.859 L123.321,92.859 L123.321,96.118 L119.716,96.118 L119.716,97.455 L123.745,97.455 L123.745,100.912 L115.282,100.912 Z M144.445,88.175 L149.477,88.175 L153.873,100.912 L149.021,100.912 L148.613,99.307 L145.2,99.307 L144.816,100.912 L139.978,100.912 L144.445,88.175 Z M145.962,96.281 L147.841,96.281 C147.783,96.089 147.728,95.892 147.676,95.691 C147.62,95.488 147.566,95.295 147.508,95.104 C147.378,94.605 147.261,94.104 147.164,93.598 C147.066,93.094 146.991,92.58 146.946,92.059 L146.857,92.04 C146.807,92.573 146.735,93.094 146.637,93.598 C146.536,94.104 146.422,94.605 146.29,95.104 C146.233,95.295 146.179,95.488 146.125,95.691 C146.074,95.886 146.022,96.083 145.962,96.281 Z M86.227,112.91 L86.227,104.096 L88.099,104.096 L88.099,116.811 L87.592,116.811 L80.028,109.392 C79.811,109.181 79.603,108.953 79.4,108.717 C79.198,108.476 79.009,108.23 78.826,107.969 L78.826,116.811 L76.963,116.811 L76.963,104.096 L77.474,104.096 L84.877,111.365 C85.092,111.585 85.309,111.82 85.529,112.069 C85.753,112.318 85.984,112.598 86.227,112.91 Z M176.067,92.47 L176.067,88.175 L180.429,88.175 L180.429,100.912 L175.959,100.912 L172.093,94.303 C172.115,94.48 172.137,94.652 172.154,94.819 C172.173,94.984 172.185,95.151 172.197,95.318 C172.207,95.496 172.219,95.668 172.222,95.835 C172.229,95.999 172.233,96.167 172.233,96.333 L172.233,100.912 L167.87,100.912 L167.87,88.175 L172.303,88.175 L176.206,94.854 C176.195,94.738 176.181,94.609 176.166,94.471 C176.148,94.335 176.132,94.204 176.119,94.072 C176.097,93.809 176.081,93.546 176.077,93.279 C176.07,93.011 176.067,92.742 176.067,92.47 Z M81.183,97.167 L81.183,100.91 L76.666,100.91 L76.666,88.175 L82.063,88.175 C83.741,88.175 85.076,88.504 86.066,89.163 C87.056,89.824 87.552,91.037 87.552,92.806 L87.552,93.046 C87.552,93.121 87.547,93.211 87.534,93.303 C87.487,94.28 87.193,95.106 86.646,95.787 C86.102,96.471 85.34,96.894 84.368,97.059 C84.051,97.109 83.735,97.143 83.419,97.16 C83.1,97.178 82.786,97.187 82.468,97.187 L82.179,97.187 C82.077,97.187 81.98,97.182 81.89,97.167 L81.183,97.167 Z M81.199,91.74 L81.199,93.842 C81.225,93.851 81.247,93.859 81.273,93.859 L81.613,93.859 C81.715,93.859 81.81,93.851 81.905,93.842 C82.234,93.827 82.536,93.755 82.818,93.626 C83.099,93.493 83.241,93.223 83.241,92.806 C83.229,92.393 83.086,92.115 82.813,91.98 C82.535,91.839 82.226,91.769 81.889,91.755 C81.792,91.744 81.697,91.74 81.605,91.74 L81.199,91.74 Z M99.102,104.096 L94.167,109.748 L99.689,116.811 L97.076,116.811 L92.152,110.313 L92.152,116.811 L90.125,116.811 L90.125,104.096 L92.152,104.096 L92.152,109.358 L96.626,104.096 L99.102,104.096 Z M165.222,94.604 C164.813,95.237 164.209,95.613 163.407,95.745 L166.769,100.911 L161.702,100.911 L159.502,96.707 L159.502,100.911 L155.072,100.911 L155.072,88.174 L160.753,88.174 C161.41,88.187 162.05,88.251 162.67,88.371 C163.292,88.491 163.863,88.76 164.377,89.191 C164.858,89.57 165.218,90.042 165.459,90.606 C165.7,91.17 165.824,91.761 165.837,92.377 L165.837,92.487 C165.837,93.269 165.632,93.975 165.222,94.604 Z M161.026,93.767 C161.386,93.638 161.557,93.294 161.545,92.735 C161.556,92.165 161.385,91.814 161.026,91.675 C160.669,91.539 160.276,91.472 159.859,91.472 L159.502,91.472 L159.502,93.947 C159.517,93.958 159.527,93.964 159.538,93.964 L159.859,93.964 C160.276,93.964 160.669,93.899 161.026,93.767 Z M31.51,85 C41.18,85 49.021,92.84 49.021,102.511 C49.021,112.183 41.18,120.021 31.51,120.021 C21.839,120.021 14,112.183 14,102.511 C14,92.84 21.839,85 31.51,85 Z M32.39,113.237 L32.39,103.685 L22.838,103.685 L22.838,113.237 L32.39,113.237 Z M32.39,101.3 L32.39,91.749 L22.838,91.749 L22.838,101.3 L32.39,101.3 Z M34.777,113.237 C39.552,113.237 41.941,111.098 41.941,108.461 C41.941,105.825 39.552,103.686 34.777,103.686 L34.777,113.237 Z M34.777,101.3 C39.552,101.3 41.941,99.161 41.941,96.525 C41.941,93.888 39.552,91.749 34.777,91.749 L34.777,101.3 Z" id="logo"></path>
        </g>
    </g>
</svg>