<svg width="190" height="33" viewBox="0 0 190 33" xmlns="http://www.w3.org/2000/svg"><title>neteller</title><path d="M177.622 14.413c-1.103.763-2.629 1.102-4.833 1.102h-2.12l1.611-8.817h1.611c1.78 0 3.052.254 3.985.848.678.424 1.526 1.356 1.526 3.052 0 2.12-.933 3.222-1.78 3.815zM50.785 25.435H34.253l1.102-5.765h10.343l1.187-6.529H36.627l1.017-5.68h16.363l-3.222 17.974zM186.524 2.544c-2.459-1.696-6.105-2.46-10.852-2.46h-12.548l-4.663 25.351h-16.449l1.018-5.765h9.92l1.187-6.444h-9.92l1.102-5.765h10.259L156.934 0h-20.772l-4.408 24.079h-7.63L128.616 0h-11.022l-4.409 24.079h-7.46L110.218 0H99.366l-4.663 25.435H78.086l1.017-5.765h10.005l1.187-6.444h-9.92l1.017-5.765h10.344L93.092 0h-64.69l-3.645 20.094L17.38.084H6.104L0 32.897h10.768l3.645-20.687 7.122 20.687h38.577l4.663-25.35h6.02l-4.664 25.35h101.401l2.968-16.024 4.748 16.024h10.767l-4.917-13.057 1.102-.254c2.459-.509 4.409-1.696 5.765-3.391C189.322 14.498 190 12.209 190 9.58c0-3.137-1.102-5.427-3.476-7.037z" fill="#346275" fill-rule="evenodd"/></svg>