<svg width="190" height="33" viewBox="0 0 190 33" xmlns="http://www.w3.org/2000/svg"><title>paysafe</title><path d="M17.747 12.56c.051.376.059.74.059 1.115v7.807c0 .658-.074 1.3-.266 1.926-.157.502-.4.964-.764 1.351-.458.497-1.03.78-1.672.94-.43.105-.877.152-1.323.152-3.316 0-6.628 0-9.94-.007-1.034 0-1.919-.392-2.706-1.042-.144-.121-.246-.274-.348-.427a4.402 4.402 0 0 1-.572-1.436 5.222 5.222 0 0 1-.117-.776c-.008-.105 0-.223-.098-.297v-8.793c.11-.07.086-.184.098-.29.031-.337.086-.666.168-.995.126-.473.31-.924.591-1.339.094-.137.208-.258.341-.368a4.565 4.565 0 0 1 2.06-.94c.156-.03.32-.03.477-.03h10.16c.516 0 1.03.062 1.519.223.924.297 1.578.9 1.97 1.789.199.458.304.947.363 1.437zm20.543 1.03c0 2.783-.008 5.559.004 8.342.004 1.057-.376 1.942-1.116 2.674a4.318 4.318 0 0 1-.979.772 3.7 3.7 0 0 1-1.468.442c-.31.031-.623.031-.932.031h-4.824c-.093.008-.117.032-.12.137-.005.079-.005.161-.005.24v5.52c0 .082.004.152 0 .242-.007.094-.027.11-.133.118H24.85c-.082-.008-.106-.032-.113-.102V13.562c0-.61.062-1.226.223-1.82.094-.36.235-.705.415-1.034.172-.306.395-.568.689-.771.564-.384 1.167-.666 1.844-.78.149-.03.301-.039.454-.039h6.108c.407 0 .81.055 1.21.16 1.115.283 1.875.964 2.282 2.04.145.392.235.803.282 1.218.043.353.047.701.047 1.053zm-4.123.904c0-.16-.012-.321-.055-.474-.082-.337-.282-.568-.63-.642a1.117 1.117 0 0 0-.317-.04h-3.066c-.152 0-.301.024-.446.063-.407.114-.654.384-.748.787a2.229 2.229 0 0 0-.055.537c.004 1.092 0 2.204 0 3.304 0 .74.004 1.492 0 2.24 0 .168.016.336.06.497a.989.989 0 0 0 .614.72c.2.082.407.121.626.121h2.933c.462 0 .76-.258.982-.618.09-.145.098-.321.098-.49v-3.014c0-.995 0-1.997.004-2.991zm83.028 1.668c-.016-1.042-.032-2.08-.024-3.12.008-.635.09-1.254.33-1.853a3.048 3.048 0 0 1 1.694-1.718c.478-.2.98-.306 1.5-.345.156-.016.317-.016.477-.016h5.603c.462 0 .92.047 1.37.177 1.187.32 1.942 1.06 2.295 2.231.152.505.23 1.026.23 1.547v3.257c0 .04 0 .082-.007.13 0 .038-.024.07-.063.081-.047.024-.09.04-.145.063-1.675.658-3.335 1.316-5.007 1.966-1.292.512-2.592 1.025-3.884 1.538a.572.572 0 0 0-.121.055c-.032.016-.055.04-.055.082-.024.329 0 .658.215.94.051.062.082.129.137.192a.527.527 0 0 0 .45.238h8.14c.372 0 .329-.039.329.321v3.626c0 .305.023.305-.306.305H121.665c-.54-.008-1.064-.031-1.589-.145a3.497 3.497 0 0 1-1.906-1.139c-.337-.395-.603-.81-.736-1.315a5.667 5.667 0 0 1-.145-.81c-.083-.612-.047-1.226-.055-1.837-.04-1.488-.02-2.972-.04-4.451zm4.107-.337c0 .062.007.121.015.184 0 .039.032.07.075.063.094-.032.192-.055.278-.09 1.358-.506 2.701-1.018 4.06-1.531.207-.079.407-.16.614-.24.083-.03.106-.081.106-.16-.008-.258-.137-.434-.36-.56a1.218 1.218 0 0 0-.634-.152c-.924 0-1.868.008-2.8 0a1.425 1.425 0 0 0-1.092.45.835.835 0 0 0-.262.619c.007.238 0 .481 0 .72v.697zm-66.283-4.04c.11.45.16.908.16 1.378 0 2.881.004 5.774-.003 8.664 0 .68-.118 1.339-.415 1.957a3.571 3.571 0 0 1-1.496 1.621 3.11 3.11 0 0 1-1.339.411c-.31.04-.619.04-.932.04h-5.117c-.638-.008-1.276-.071-1.895-.255a3.45 3.45 0 0 1-1.358-.756c-.443-.415-.717-.943-.866-1.538a5.083 5.083 0 0 1-.16-1.238c-.004-1.155-.008-2.31 0-3.464a5.49 5.49 0 0 1 .247-1.606c.332-1.025 1.01-1.707 2.032-2.055.465-.16.947-.231 1.436-.258.13-.008.267-.008.4-.008h5.011c.411 0 .356.055.36-.376a1.276 1.276 0 0 0-.043-.4.705.705 0 0 0-.438-.465 1.23 1.23 0 0 0-.443-.083c-.086-.007-.176-.007-.266-.007h-7.861c-.075 0-.145.007-.22 0-.129 0-.14-.016-.145-.16-.003-.056 0-.107 0-.161 0-1.195-.003-2.377 0-3.571 0-.376-.03-.337.321-.337h9.013c.517 0 1.03.047 1.527.176.552.145 1.06.376 1.488.748.524.466.841 1.065 1.002 1.742zm-3.935 8.076c-.004-.129 0-.266-.008-.399-.03-.411-.27-.697-.669-.795a2.174 2.174 0 0 0-.446-.055c-.537.008-1.07.008-1.602.008h-1.593a1.92 1.92 0 0 0-.368.032c-.478.07-.56.242-.638.657-.008.024-.008.055-.008.083-.004.481-.012.963-.012 1.436 0 .153.063.282.169.384.246.247.532.407.896.4.423-.008.85 0 1.276 0h1.946c.204 0 .407-.032.595-.122a.672.672 0 0 0 .415-.482c.032-.097.043-.207.043-.313.004-.286.004-.56.004-.834zm56.887 5.994H111.678c.106-.007.122-.023.13-.121.007-.078 0-.145 0-.215V13.652c0-.329-.024-.305.297-.305h2.365c.254 0 .254 0 .254-.247V9.369c0-.047 0-.09-.008-.137 0-.09-.03-.114-.129-.122h-2.639c-.12 0-.144-.023-.144-.137-.008-.29-.008-.579 0-.88.007-.114.035-.231.066-.337a.985.985 0 0 1 .634-.674c.208-.078.408-.105.623-.105h1.366c.235 0 .243 0 .243-.247V3.105c0-.231-.008-.231-.243-.231-.794-.008-1.597-.008-2.392 0-.254 0-.52.015-.771.054-.904.122-1.723.45-2.42 1.058a3.46 3.46 0 0 0-1.092 1.734c-.094.4-.137.803-.137 1.218v18.608c-.008.317-.023.31.29.31zM.57 9.24c.028-.016.055-.04.083-.063a5.517 5.517 0 0 1 2.04-1.01c.082-.016.113-.055.133-.137.062-.266.14-.536.239-.787a6.253 6.253 0 0 1 6.26-4.052c.869.055 1.691.266 2.45.673 1.66.873 2.737 2.216 3.215 4.037.066.246.063.246.297.297.725.169 1.383.474 1.942.956.032.023.055.078.122.03.004-.105.011-.222.011-.336 0-.407-.039-.81-.082-1.225a8.399 8.399 0 0 0-6.166-7.31A9.289 9.289 0 0 0 9.729.055c-.047 0-.106.015-.133-.055h-1.55c0 .023.003.04.003.055-.262.047-.532.078-.79.129-1.97.407-3.594 1.39-4.863 2.952A8.25 8.25 0 0 0 .623 7.075C.54 7.595.525 8.116.493 8.64c-.008.184 0 .368.004.56-.004.039.04.062.075.039zm100.537 16.576c-.306.04-.6.04-.905.04h-5.117c-.65 0-1.292-.063-1.918-.255a3.399 3.399 0 0 1-1.382-.771c-.447-.431-.717-.964-.866-1.566a4.855 4.855 0 0 1-.14-1.155c-.012-1.202-.016-2.4 0-3.602.007-.627.101-1.237.356-1.82a3.005 3.005 0 0 1 1.558-1.606c.43-.192.889-.298 1.359-.36.336-.047.673-.047 1.014-.047H100.05c.204 0 .208 0 .212-.208 0-.121.008-.239-.004-.352-.047-.435-.262-.626-.599-.72a2.023 2.023 0 0 0-.529-.055h-8.186c-.063 0-.102-.04-.102-.09V9.4c0-.305-.012-.29.282-.29h9.067c.521 0 1.03.047 1.531.184.544.137 1.042.368 1.464.74.545.474.858 1.077 1.026 1.766.106.466.153.932.153 1.398v8.586c0 .736-.121 1.452-.474 2.11a3.633 3.633 0 0 1-1.405 1.492c-.443.246-.897.38-1.378.43zm-.854-5.916c0-.144 0-.281-.004-.426-.027-.4-.25-.682-.634-.787a1.512 1.512 0 0 0-.415-.07c-1.112.007-2.22.007-3.332.007a1.431 1.431 0 0 0-.446.063.53.53 0 0 0-.439.41 1.22 1.22 0 0 0-.062.338c-.004.458-.008.924-.008 1.386 0 .16.07.29.18.407.254.246.54.391.9.383.533-.015 1.061 0 1.602 0h1.593c.145 0 .282-.015.42-.054.41-.106.63-.376.641-.803.004-.29.004-.572.004-.854zm62.195 4.327c-.708 1.139-1.73 1.852-3.073 2.118-.337.074-.689.098-1.041.098h-4.906c-.76 0-1.417-.106-2.02-.337-1.226-.474-2.11-1.304-2.608-2.467-.168-.395-.274-.826-.352-1.366-.04-.38-.047-.744-.047-1.108V19.13c0-.564.063-1.104.168-1.609a4.24 4.24 0 0 1 .521-1.382c.458-.814 1.155-1.405 2.063-1.754a5.42 5.42 0 0 1 1.774-.36c.192-.012.376-.02.56-.02h7.43c0-.172 0-.344-.007-.516-.008-.537-.09-.983-.259-1.37-.2-.451-.45-.803-.763-1.073-.223-.196-.435-.31-.697-.357a5.448 5.448 0 0 0-1.131-.117l-2.874-.004-5.79.004c-.098 0-.2-.004-.298-.012-.392-.031-.634-.29-.658-.697v-.736c.008-.254.106-.665.658-.736l.25-.008c2.73 0 5.462 0 8.19.008.764 0 1.453.051 2.08.153a3.17 3.17 0 0 1 1.699.842 5.2 5.2 0 0 1 1.147 1.6c.298.612.482 1.265.56 1.95.031.278.043.572.043.862l-.012 2.47.012 4.941c0 .533-.043 1.092-.114 1.668-.066.458-.234.9-.505 1.35zm-1.562-8.058c-2.494-.004-4.98-.004-7.493-.004a3.88 3.88 0 0 0-.873.09c-.858.188-1.421.674-1.719 1.477-.125.332-.2.689-.2 1.053-.008.99-.008 1.985 0 2.975 0 .294.055.61.137.955.04.134.09.263.177.376.082.133.215.259.399.411.618.513 1.292.76 2.047.76H155.574c.92 0 1.845 0 2.768-.008.455 0 .85-.07 1.21-.207.54-.204.897-.564 1.108-1.097.153-.395.227-.81.227-1.276v-5.505zm-21.49 10.274H145.262c.38-.04.627-.306.65-.705v-.658c0-.681-.407-.818-.752-.818h-5.602c-.31 0-.63-.024-.944-.063a3.3 3.3 0 0 1-.677-.121c-.505-.176-.834-.376-1.065-.65a2.94 2.94 0 0 1-.583-1.1 5.535 5.535 0 0 1-.176-1.457l-.008-4.58.008-2.295c0-.407-.008-.806.023-1.213.023-.239.055-.47.114-.697.093-.376.262-.662.505-.881.16-.14.352-.258.634-.376.462-.18.994-.262 1.593-.262l1.966-.004 3.95.004c.094 0 .2-.004.243-.008l.697-.09v-1.39l-.098-.634-.537-.051c-.09-.008-.2-.012-.29-.012h-5.261c-.49 0-.987.004-1.484.043-.376.032-.818.083-1.253.22-.752.246-1.394.708-1.989 1.397a3.957 3.957 0 0 0-.865 1.805c-.07.36-.098.736-.098 1.147v8.457c0 .544.082 1.1.243 1.652a4.418 4.418 0 0 0 1.715 2.447c.473.329.947.552 1.42.65.631.168 1.3.243 2.056.243zm29.544-.909V13.812c0-.293 0-.587.039-.884.05-.392.129-.713.254-.999.176-.41.443-.728.81-.947.228-.125.443-.22.682-.274a4.36 4.36 0 0 1 1.069-.13l.29-.003.618.004c.082 0 .176-.004.282-.016l.572-.168V9.07l-.083-.603-.52-.062c-.552-.079-1.093-.02-1.621.02-.482.027-.905.09-1.292.199-.85.22-1.55.622-2.083 1.21-.474.528-.795 1.143-.99 1.879a8.136 8.136 0 0 0-.232 1.97v11.858l.137.9h1.245c.13 0 .396 0 .588-.207.235-.196.235-.45.235-.7zM190 3.672v17.395c0 .858-.13 1.656-.403 2.365-.466 1.284-1.37 2.173-2.663 2.635-.465.18-.986.282-1.628.336a13.63 13.63 0 0 1-1.194.044H180.38a11.522 11.522 0 0 1-1.72-.177 3.222 3.222 0 0 1-1.01-.356c-1.186-.638-1.957-1.605-2.262-2.874a7.403 7.403 0 0 1-.223-1.754v-7.462c0-.748.098-1.46.297-2.11.223-.744.572-1.359 1.061-1.868.537-.552 1.218-.943 2.02-1.178.58-.172 1.222-.25 2.005-.25h7.262l.008-4.746c-.008-.458.263-.732.76-.732h.67c.465 0 .735.266.751.732zm-2.173 6.907h-6.539c-.375 0-.735 0-1.1.02a5.222 5.222 0 0 0-.927.148 1.871 1.871 0 0 0-.787.407 5.24 5.24 0 0 0-.544.56 2.447 2.447 0 0 0-.38.642c-.125.38-.192.728-.192 1.061v8.073c0 .215 0 .325.008.438.016.345.082.639.168.901.169.454.435.756.842.955.153.075.329.153.505.216.556.18 1.124.266 1.695.266h3.41c.431 0 .85-.032 1.222-.09.712-.13 1.284-.384 1.766-.772.086-.078.184-.164.254-.258.2-.243.352-.544.446-.908.098-.368.153-.756.153-1.19v-10.47zM71.674 9.11h-3.387c-.407 0-.36-.047-.36.353V20.55a.802.802 0 0 1-.176.498c-.262.336-.6.552-1.045.56H63.69c-.529-.008-.861-.29-.99-.803-.055-.215-.055-.435-.055-.658V9.427c0-.336.027-.313-.321-.313h-3.497c-.36 0-.325-.031-.325.33V21.442c0 .442.024.873.118 1.3.14.642.427 1.225.85 1.726.536.635 1.19 1.093 2.016 1.269.391.09.787.121 1.19.121H67.798c.094.008.121.032.121.137.004.278.008.568 0 .85a.823.823 0 0 1-.239.571c-.211.24-.465.392-.775.427-.14.024-.282.032-.423.032h-7.677c-.321 0-.298-.016-.298.305v3.633c0 .047-.004.098 0 .153 0 .106.024.129.118.137h9.337c.274 0 .548-.008.822-.055a3.394 3.394 0 0 0 1.872-.893c.552-.524.896-1.162 1.112-1.875.188-.619.246-1.253.246-1.895.004-2.975 0-5.955 0-8.93V9.447c.004-.376.04-.337-.34-.337zm12.188 16.745c.375 0 .743-.031 1.111-.086a2.407 2.407 0 0 0 1.046-.45c.736-.572 1.292-1.284 1.628-2.165.126-.321.192-.666.192-1.018-.004-1.041 0-2.079 0-3.12 0-.267-.031-.529-.09-.787-.219-.932-.74-1.668-1.5-2.232-.602-.466-1.307-.665-2.063-.673h-3.468c-.141 0-.282 0-.423-.008a1.732 1.732 0 0 1-.513-.13.685.685 0 0 1-.427-.626 5.957 5.957 0 0 1 0-.458.67.67 0 0 1 .407-.603c.106-.047.22-.082.33-.105a2.91 2.91 0 0 1 .583-.047h6.878c.302 0 .286.023.286-.29V9.43c0-.336.024-.313-.32-.313h-8.105c-.172 0-.34 0-.513.008a4.877 4.877 0 0 0-1.55.329c-.881.345-1.484.955-1.797 1.852-.16.458-.247.932-.247 1.405a135.361 135.361 0 0 0-.004 3.336 3.11 3.11 0 0 0 .572 1.75c.195.274.442.505.693.736a4.082 4.082 0 0 0 2.693 1.057h.345c1.073 0 2.15.008 3.226 0 .266-.008.454.098.603.313.258.376.211.772.14 1.187a.056.056 0 0 0-.007.023c-.082.208-.239.329-.439.407a1.807 1.807 0 0 1-.65.098h-6.957c-.29 0-.278-.023-.278.266v3.704c0 .282-.02.274.27.274 2.788-.008 5.564-.008 8.348-.008z" fill="#346275" fill-rule="evenodd"/></svg>