<svg xmlns="http://www.w3.org/2000/svg" width="80" height="80" viewBox="0 0 80 80">
  <g fill="none" fill-rule="evenodd">
    <polygon fill="rgba(255, 255, 255, 0)" points="0 80 80 80 80 0 0 0"/>
    <polygon fill="#346275" points="0 80 80 80 80 40 0 40"/>
    <path fill="#FFF" d="M41.8346,55.0148 L41.8346,60.3168 C41.8346,62.0978 42.5766,62.9198 43.6966,62.9198 C44.8976,62.9198 45.6116,62.0978 45.6116,60.3168 L45.6116,55.0148 L47.2716,55.0148 L47.2716,60.2078 C47.2716,63.0148 45.8286,64.2558 43.6426,64.2558 C41.5376,64.2558 40.1756,63.0818 40.1756,60.2228 L40.1756,55.0148 L41.8346,55.0148 Z M21.6757,54.8799 C22.6597,54.8799 23.3747,55.0959 23.8477,55.3249 L23.4557,56.6739 C23.1187,56.4989 22.4847,56.2419 21.6347,56.2419 C20.5827,56.2419 20.1377,56.7959 20.1377,57.3349 C20.1377,58.0369 20.6637,58.3609 21.8777,58.8199 C23.4557,59.4259 24.2117,60.2229 24.2117,61.5179 C24.2117,62.9869 23.1057,64.2419 20.7717,64.2419 C19.8007,64.2419 18.8017,63.9729 18.3027,63.6759 L18.6807,62.2999 C19.2067,62.6109 20.0297,62.8799 20.8797,62.8799 C21.9317,62.8799 22.5257,62.3809 22.5257,61.6389 C22.5257,60.9499 22.0667,60.5459 20.9197,60.1279 C19.4097,59.6019 18.4517,58.7919 18.4517,57.4969 C18.4517,55.9989 19.6927,54.8799 21.6757,54.8799 Z M36.7748,54.88 C37.8668,54.88 38.6358,55.096 38.9728,55.271 L38.6228,56.593 C38.1908,56.404 37.5838,56.242 36.8418,56.242 C34.9938,56.242 33.6578,57.402 33.6578,59.588 C33.6578,61.585 34.8178,62.853 36.8278,62.853 C37.4888,62.853 38.1908,62.718 38.6358,62.529 L38.9058,63.838 C38.5148,64.025 37.6508,64.242 36.5448,64.242 C33.6578,64.242 31.9048,62.435 31.9048,59.669 C31.9048,56.674 33.9948,54.88 36.7748,54.88 Z M30.8637,55.0144 L30.8637,56.3774 L27.2347,56.3774 L27.2347,58.7244 L30.6617,58.7244 L30.6617,60.0734 L27.2347,60.0734 L27.2347,62.7454 L31.0667,62.7454 L31.0667,64.1074 L25.5757,64.1074 L25.5757,55.0144 L30.8637,55.0144 Z M51.5496,54.9474 C52.8576,54.9474 53.7346,55.1634 54.3546,55.6774 C54.8536,56.0934 55.1376,56.7274 55.1376,57.5104 C55.1376,58.6844 54.3416,59.4794 53.4786,59.7774 L53.4786,59.8174 C54.1396,60.0604 54.5306,60.6944 54.7466,61.5714 C55.0436,62.7044 55.2866,63.7574 55.4616,64.1074 L53.7616,64.1074 C53.6266,63.8384 53.3966,63.0954 53.1546,61.9634 C52.8846,60.7754 52.4666,60.3974 51.5226,60.3714 L50.6856,60.3714 L50.6856,64.1074 L49.0396,64.1074 L49.0396,55.1494 C49.6736,55.0284 50.5916,54.9474 51.5496,54.9474 Z M61.8705,55.0144 L61.8705,56.3774 L58.2415,56.3774 L58.2415,58.7244 L61.6685,58.7244 L61.6685,60.0734 L58.2415,60.0734 L58.2415,62.7454 L62.0735,62.7454 L62.0735,64.1074 L56.5825,64.1074 L56.5825,55.0144 L61.8705,55.0144 Z M51.7106,56.2024 C51.1846,56.2024 50.8476,56.2424 50.6856,56.2834 L50.6856,59.1564 L51.6706,59.1564 C52.7906,59.1564 53.4786,58.5624 53.4786,57.6594 C53.4786,56.6744 52.7906,56.2024 51.7106,56.2024 Z"/>
    <path fill="#346275" d="M38.358,11.2091 L34.506,29.2161 L29.848,29.2161 L33.7,11.2091 L38.358,11.2091 Z M57.957,22.8371 L60.409,16.0741 L61.82,22.8371 L57.957,22.8371 Z M63.157,29.2161 L67.464,29.2161 L63.701,11.2091 L59.727,11.2091 C58.832,11.2091 58.077,11.7291 57.743,12.5291 L50.753,29.2161 L55.645,29.2161 L56.616,26.5261 L62.592,26.5261 L63.157,29.2161 Z M50.995,23.3371 C51.016,18.5851 44.426,18.3211 44.47,16.1981 C44.484,15.5541 45.099,14.8661 46.445,14.6901 C47.112,14.6051 48.953,14.5351 51.04,15.4961 L51.856,11.6761 C50.735,11.2711 49.293,10.8811 47.499,10.8811 C42.893,10.8811 39.653,13.3261 39.628,16.8321 C39.598,19.4251 41.941,20.8701 43.704,21.7331 C45.521,22.6161 46.129,23.1821 46.121,23.9711 C46.108,25.1791 44.671,25.7141 43.335,25.7331 C40.991,25.7721 39.633,25.1011 38.55,24.5961 L37.705,28.5431 C38.795,29.0421 40.804,29.4771 42.883,29.4991 C47.779,29.4991 50.981,27.0811 50.995,23.3371 L50.995,23.3371 Z M31.702,11.2091 L24.153,29.2161 L19.23,29.2161 L15.515,14.8461 C15.29,13.9621 15.094,13.6371 14.409,13.2641 C13.289,12.6551 11.439,12.0861 9.814,11.7311 L9.923,11.2091 L17.85,11.2091 C18.86,11.2091 19.768,11.8811 19.999,13.0441 L21.962,23.4651 L26.808,11.2091 L31.702,11.2091 Z"/>
  </g>
</svg>
